%TF.GenerationSoftware,Altium Limited,Altium Designer,26.5.0 (11)*%
G04 Layer_Color=8388736*
G04 Board_Origin=10688975|11968503*
%FSLAX26Y26*%
%MOIN*%
%TF.SameCoordinates,7073DFFB-BC33-4E39-BC49-769ACC3D4B62*%
%TF.FilePolarity,Negative*%
%TF.FileFunction,Soldermask,Top*%
%TF.Part,Single*%
G01*
G75*
%TA.AperFunction,ComponentPad*%
%ADD44O,0.181165X0.092583*%
%ADD45O,0.092583X0.181165*%
%ADD46O,0.102425X0.200850*%
%TA.AperFunction,NonConductor*%
%ADD51R,0.018967X0.033465*%
%TA.AperFunction,Conductor*%
%ADD52C,0.012160*%
%TA.AperFunction,SMDPad,CuDef*%
%ADD53R,0.053213X0.074866*%
%ADD54R,0.057150X0.065024*%
%ADD55R,0.204000X0.094000*%
%ADD56R,0.039433X0.047307*%
%ADD57R,0.039748X0.046480*%
%ADD58R,0.029000X0.031559*%
%ADD59R,0.031559X0.029000*%
%ADD60R,0.027622X0.013842*%
%ADD61R,0.021000X0.059000*%
%ADD62R,0.120000X0.073000*%
%ADD63R,0.026047X0.075260*%
%ADD64R,0.047307X0.047307*%
%ADD65R,0.047307X0.047307*%
%ADD66R,0.070142X0.070142*%
%ADD67R,0.222000X0.146000*%
G04:AMPARAMS|DCode=68|XSize=65.024mil|YSize=27.622mil|CornerRadius=2.945mil|HoleSize=0mil|Usage=FLASHONLY|Rotation=0.000|XOffset=0mil|YOffset=0mil|HoleType=Round|Shape=RoundedRectangle|*
%AMROUNDEDRECTD68*
21,1,0.065024,0.021732,0,0,0.0*
21,1,0.059134,0.027622,0,0,0.0*
1,1,0.005890,0.029567,-0.010866*
1,1,0.005890,-0.029567,-0.010866*
1,1,0.005890,-0.029567,0.010866*
1,1,0.005890,0.029567,0.010866*
%
%ADD68ROUNDEDRECTD68*%
%ADD69R,0.034000X0.014000*%
%ADD70R,0.014000X0.034000*%
%ADD71R,0.044000X0.020000*%
%TA.AperFunction,ConnectorPad*%
%ADD72R,0.204000X0.094000*%
%TA.AperFunction,SMDPad,CuDef*%
%ADD73R,0.039433X0.059118*%
%ADD74R,0.065024X0.057150*%
%ADD75R,0.074866X0.025654*%
%TA.AperFunction,Conductor*%
%ADD76C,0.016160*%
G36*
X1471457Y234252D02*
X1469488Y236220D01*
X1469488Y253937D01*
X1453740D01*
X1451771Y255905D01*
X1451772Y346457D01*
X1453740Y348425D01*
X1469488Y348425D01*
Y366142D01*
X1471457Y368110D01*
D01*
X1477362Y368110D01*
X1477362Y368110D01*
X1479331Y366142D01*
Y348425D01*
X1489173D01*
X1489173Y366142D01*
X1491142Y368110D01*
D01*
X1497047Y368110D01*
X1497047Y368110D01*
X1499016Y366142D01*
X1499015Y348425D01*
X1514764Y348425D01*
X1516732Y346457D01*
Y255905D01*
X1514764Y253937D01*
X1499016D01*
X1499015Y236221D01*
X1497047Y234252D01*
X1491142Y234252D01*
X1489173Y236221D01*
X1489173Y253937D01*
X1479331D01*
Y236221D01*
X1477362Y234252D01*
X1471457Y234252D01*
D02*
G37*
D44*
X2314961Y381890D02*
D03*
D45*
X2433071Y196851D02*
D03*
D46*
X2196850D02*
D03*
D51*
X2690320Y602362D02*
D03*
D52*
X778870Y549212D02*
G03*
X813596Y563596I0J49109D01*
G01*
X877953Y602362D02*
G03*
X834267Y584267I0J-61781D01*
G01*
X733564Y549212D02*
X778870D01*
X877953Y602362D02*
X2735905D01*
X815211Y565211D02*
X834267Y584267D01*
D53*
X1627322Y129743D02*
D03*
X1743464D02*
D03*
X1738790Y468451D02*
D03*
X1622648D02*
D03*
D54*
X1513780Y179134D02*
D03*
Y423228D02*
D03*
X1860236Y456693D02*
D03*
Y106299D02*
D03*
X1435039Y179134D02*
D03*
Y423228D02*
D03*
X1938976Y456693D02*
D03*
Y106299D02*
D03*
D55*
X338189Y727401D02*
D03*
X634449Y60000D02*
D03*
D56*
X1106299Y427165D02*
D03*
Y517717D02*
D03*
D57*
X831102Y697835D02*
D03*
X893307Y697835D02*
D03*
X1023228Y697835D02*
D03*
X961024Y697835D02*
D03*
D58*
X1348819Y301181D02*
D03*
X313681Y635827D02*
D03*
X733563Y188976D02*
D03*
X891043Y462599D02*
D03*
X733563Y549213D02*
D03*
X774311Y505906D02*
D03*
X812303D02*
D03*
X1386811Y301181D02*
D03*
X351673Y635827D02*
D03*
X313681Y592520D02*
D03*
X351673D02*
D03*
X695571Y188976D02*
D03*
X853051Y462599D02*
D03*
X812303D02*
D03*
X774311D02*
D03*
X733563Y505906D02*
D03*
X695571D02*
D03*
Y549213D02*
D03*
Y232284D02*
D03*
X733563D02*
D03*
X851673Y419291D02*
D03*
X813681D02*
D03*
D59*
X1669291Y367421D02*
D03*
X600394Y388189D02*
D03*
X612205Y676476D02*
D03*
X1625984Y234941D02*
D03*
X1582677Y234941D02*
D03*
X267716Y550493D02*
D03*
Y512500D02*
D03*
X354331Y550493D02*
D03*
Y512500D02*
D03*
X311024D02*
D03*
Y550493D02*
D03*
X1582677Y272933D02*
D03*
X1625984D02*
D03*
X1582677Y367421D02*
D03*
X1582677Y329429D02*
D03*
X1625984Y367421D02*
D03*
Y329429D02*
D03*
X1669291Y329429D02*
D03*
X1669291Y250689D02*
D03*
X1669291Y288681D02*
D03*
X224409Y512500D02*
D03*
Y550492D02*
D03*
X484252Y550493D02*
D03*
Y512500D02*
D03*
X440945D02*
D03*
Y550493D02*
D03*
X397638Y512500D02*
D03*
Y550493D02*
D03*
X568898Y638484D02*
D03*
Y676476D02*
D03*
X612205Y638484D02*
D03*
X600394Y426181D02*
D03*
D60*
X1429134Y281496D02*
D03*
X1539370Y261811D02*
D03*
X1539370Y340551D02*
D03*
Y320866D02*
D03*
Y301181D02*
D03*
X1539370Y281496D02*
D03*
X1429134Y261811D02*
D03*
X1429134Y301181D02*
D03*
X1429134Y320866D02*
D03*
Y340551D02*
D03*
D61*
X1843480Y195496D02*
D03*
X1869080D02*
D03*
X1894680D02*
D03*
X1869080Y367496D02*
D03*
X1843480D02*
D03*
X1920280Y195496D02*
D03*
X1945880D02*
D03*
X1971480D02*
D03*
Y367496D02*
D03*
X1945880D02*
D03*
X1920280D02*
D03*
X1894680D02*
D03*
D62*
X1907480Y281496D02*
D03*
D63*
X690481Y660808D02*
D03*
X493237Y660809D02*
D03*
X494881Y410781D02*
D03*
X692125D02*
D03*
X658267D02*
D03*
X528740D02*
D03*
X656623Y660808D02*
D03*
X527095Y660809D02*
D03*
D64*
X1091535Y252953D02*
D03*
Y323819D02*
D03*
D65*
X875984Y109252D02*
D03*
X805118D02*
D03*
D66*
X590551Y531489D02*
D03*
D67*
X2646905Y514568D02*
D03*
Y690112D02*
D03*
D68*
X796260Y183858D02*
D03*
Y333858D02*
D03*
Y283858D02*
D03*
Y233858D02*
D03*
X1008858Y183858D02*
D03*
Y233858D02*
D03*
Y283858D02*
D03*
Y333858D02*
D03*
D69*
X648551Y521644D02*
D03*
Y501954D02*
D03*
X532551Y561024D02*
D03*
Y541334D02*
D03*
Y521644D02*
D03*
Y501954D02*
D03*
X648551Y541334D02*
D03*
Y561024D02*
D03*
D70*
X620086Y473489D02*
D03*
X580706D02*
D03*
X561016D02*
D03*
X600396D02*
D03*
X620086Y589489D02*
D03*
X600396D02*
D03*
X580706D02*
D03*
X561016D02*
D03*
D71*
X2735905Y602362D02*
D03*
D72*
X100000Y531496D02*
D03*
D73*
X976378Y472441D02*
D03*
D74*
X2050197Y320866D02*
D03*
Y242126D02*
D03*
D75*
X2041339Y464567D02*
D03*
X2135827Y501969D02*
D03*
X2135827Y427165D02*
D03*
D76*
X2735905Y602362D02*
X2735905Y602362D01*
%TF.MD5,604b849bfa39c9dd21738c98e1a9a2aa*%
M02*
