%TF.GenerationSoftware,Altium Limited,Altium Designer,26.5.0 (11)*%
G04 Layer_Color=8421504*
G04 Board_Origin=10688975|11968503*
%FSLAX26Y26*%
%MOIN*%
%TF.SameCoordinates,882CB031-7929-4FC6-AE68-10A16975D4A7*%
%TF.FilePolarity,Positive*%
%TF.FileFunction,Paste,Top*%
%TF.Part,Single*%
G01*
G75*
%TA.AperFunction,Conductor*%
%ADD10C,0.006160*%
%TA.AperFunction,SMDPad,CuDef*%
%ADD11R,0.049213X0.070866*%
%ADD12R,0.053150X0.061024*%
%ADD14R,0.035433X0.043307*%
%ADD15R,0.035748X0.042480*%
%ADD16R,0.025000X0.027559*%
%ADD17R,0.027559X0.025000*%
%ADD19R,0.023622X0.009842*%
%ADD20R,0.017000X0.055000*%
%ADD22R,0.022047X0.071260*%
%ADD23R,0.043307X0.043307*%
%ADD24R,0.043307X0.043307*%
%ADD25R,0.066142X0.066142*%
G04:AMPARAMS|DCode=27|XSize=61.024mil|YSize=23.622mil|CornerRadius=0.945mil|HoleSize=0mil|Usage=FLASHONLY|Rotation=0.000|XOffset=0mil|YOffset=0mil|HoleType=Round|Shape=RoundedRectangle|*
%AMROUNDEDRECTD27*
21,1,0.061024,0.021732,0,0,0.0*
21,1,0.059134,0.023622,0,0,0.0*
1,1,0.001890,0.029567,-0.010866*
1,1,0.001890,-0.029567,-0.010866*
1,1,0.001890,-0.029567,0.010866*
1,1,0.001890,0.029567,0.010866*
%
%ADD27ROUNDEDRECTD27*%
%ADD28R,0.030000X0.010000*%
%ADD29R,0.010000X0.030000*%
%ADD32R,0.035433X0.055118*%
%ADD33R,0.061024X0.053150*%
%ADD34R,0.070866X0.021654*%
G36*
X1497047Y368110D02*
X1499016Y366142D01*
Y356693D01*
X1497047Y354724D01*
X1491142D01*
X1489173Y356693D01*
Y366142D01*
X1491142Y368110D01*
X1497047Y368110D01*
X1497047Y368110D01*
D02*
G37*
G36*
X1477362D02*
X1479331Y366142D01*
Y356693D01*
X1477362Y354724D01*
X1471457D01*
X1469488Y356693D01*
Y366142D01*
X1471457Y368110D01*
X1477362Y368110D01*
X1477362Y368110D01*
D02*
G37*
G36*
X1513779Y344882D02*
X1513779Y307087D01*
X1511811Y305118D01*
X1456693Y305118D01*
X1454724Y307087D01*
Y344882D01*
X1456693Y346850D01*
X1511811Y346850D01*
X1513779Y344882D01*
D02*
G37*
G36*
Y295276D02*
Y257480D01*
X1511811Y255512D01*
X1456693D01*
X1454724Y257480D01*
X1454724Y295276D01*
X1456693Y297244D01*
X1511811Y297244D01*
X1513779Y295276D01*
D02*
G37*
G36*
X1961543Y250933D02*
X1911417D01*
Y312059D01*
X1961543D01*
Y250933D01*
D02*
G37*
G36*
X1903543D02*
X1853417D01*
Y312059D01*
X1903543D01*
Y250933D01*
D02*
G37*
G36*
X1497047Y247638D02*
X1499015Y245669D01*
Y236221D01*
X1497047Y234252D01*
X1491142Y234252D01*
X1489173Y236221D01*
Y245669D01*
X1491141Y247638D01*
X1497047Y247638D01*
D02*
G37*
G36*
X1477362D02*
X1479331Y245669D01*
Y236221D01*
X1477362Y234252D01*
X1471457Y234252D01*
X1469488Y236220D01*
X1469488Y245669D01*
X1471457Y247638D01*
X1477362Y247638D01*
D02*
G37*
D10*
X877953Y602362D02*
X2735905D01*
X2735905Y602362D01*
D11*
X1627322Y129743D02*
D03*
X1743464D02*
D03*
X1738790Y468451D02*
D03*
X1622648D02*
D03*
D12*
X1513780Y179134D02*
D03*
Y423228D02*
D03*
X1860236Y456693D02*
D03*
Y106299D02*
D03*
X1435039Y179134D02*
D03*
Y423228D02*
D03*
X1938976Y456693D02*
D03*
Y106299D02*
D03*
D14*
X1106299Y427165D02*
D03*
Y517717D02*
D03*
D15*
X831102Y697835D02*
D03*
X893307Y697835D02*
D03*
X1023228Y697835D02*
D03*
X961024Y697835D02*
D03*
D16*
X1348819Y301181D02*
D03*
X313681Y635827D02*
D03*
X733563Y188976D02*
D03*
X891043Y462599D02*
D03*
X733563Y549213D02*
D03*
X774311Y505906D02*
D03*
X812303D02*
D03*
X1386811Y301181D02*
D03*
X351673Y635827D02*
D03*
X313681Y592520D02*
D03*
X351673D02*
D03*
X695571Y188976D02*
D03*
X853051Y462599D02*
D03*
X812303D02*
D03*
X774311D02*
D03*
X733563Y505906D02*
D03*
X695571D02*
D03*
Y549213D02*
D03*
Y232284D02*
D03*
X733563D02*
D03*
X851673Y419291D02*
D03*
X813681D02*
D03*
D17*
X1669291Y367421D02*
D03*
X600394Y388189D02*
D03*
X612205Y676476D02*
D03*
X1625984Y234941D02*
D03*
X1582677Y234941D02*
D03*
X267716Y550493D02*
D03*
Y512500D02*
D03*
X354331Y550493D02*
D03*
Y512500D02*
D03*
X311024D02*
D03*
Y550493D02*
D03*
X1582677Y272933D02*
D03*
X1625984D02*
D03*
X1582677Y367421D02*
D03*
X1582677Y329429D02*
D03*
X1625984Y367421D02*
D03*
Y329429D02*
D03*
X1669291Y329429D02*
D03*
X1669291Y250689D02*
D03*
X1669291Y288681D02*
D03*
X224409Y512500D02*
D03*
Y550492D02*
D03*
X484252Y550493D02*
D03*
Y512500D02*
D03*
X440945D02*
D03*
Y550493D02*
D03*
X397638Y512500D02*
D03*
Y550493D02*
D03*
X568898Y638484D02*
D03*
Y676476D02*
D03*
X612205Y638484D02*
D03*
X600394Y426181D02*
D03*
D19*
X1429134Y281496D02*
D03*
X1539370Y261811D02*
D03*
X1539370Y340551D02*
D03*
Y320866D02*
D03*
Y301181D02*
D03*
X1539370Y281496D02*
D03*
X1429134Y261811D02*
D03*
X1429134Y301181D02*
D03*
X1429134Y320866D02*
D03*
Y340551D02*
D03*
D20*
X1843480Y195496D02*
D03*
X1869080D02*
D03*
X1894680D02*
D03*
X1869080Y367496D02*
D03*
X1843480D02*
D03*
X1920280Y195496D02*
D03*
X1945880D02*
D03*
X1971480D02*
D03*
Y367496D02*
D03*
X1945880D02*
D03*
X1920280D02*
D03*
X1894680D02*
D03*
D22*
X690481Y660808D02*
D03*
X493237Y660809D02*
D03*
X494881Y410781D02*
D03*
X692125D02*
D03*
X658267D02*
D03*
X528740D02*
D03*
X656623Y660808D02*
D03*
X527095Y660809D02*
D03*
D23*
X1091535Y252953D02*
D03*
Y323819D02*
D03*
D24*
X875984Y109252D02*
D03*
X805118D02*
D03*
D25*
X590551Y531489D02*
D03*
D27*
X796260Y183858D02*
D03*
Y333858D02*
D03*
Y283858D02*
D03*
Y233858D02*
D03*
X1008858Y183858D02*
D03*
Y233858D02*
D03*
Y283858D02*
D03*
Y333858D02*
D03*
D28*
X648551Y521644D02*
D03*
Y501954D02*
D03*
X532551Y561024D02*
D03*
Y541334D02*
D03*
Y521644D02*
D03*
Y501954D02*
D03*
X648551Y541334D02*
D03*
Y561024D02*
D03*
D29*
X620086Y473489D02*
D03*
X580706D02*
D03*
X561016D02*
D03*
X600396D02*
D03*
X620086Y589489D02*
D03*
X600396D02*
D03*
X580706D02*
D03*
X561016D02*
D03*
D32*
X976378Y472441D02*
D03*
D33*
X2050197Y320866D02*
D03*
Y242126D02*
D03*
D34*
X2041339Y464567D02*
D03*
X2135827Y501969D02*
D03*
X2135827Y427165D02*
D03*
%TF.MD5,66020ad33a955ed9274294712449f3ac*%
M02*
